<svg width="26" height="24" viewBox="0 0 26 24" fill="none" xmlns="http://www.w3.org/2000/svg">
<g filter="url(#filter0_i_4_544)">
<path d="M11.0979 1.8541C11.6966 0.0114784 14.3034 0.0114799 14.9021 1.8541L16.3677 6.36475C16.6355 7.18879 17.4034 7.74671 18.2698 7.74671L23.0126 7.74671C24.95 7.74671 25.7556 10.2259 24.1882 11.3647L20.3512 14.1525C19.6502 14.6618 19.3569 15.5645 19.6246 16.3885L21.0902 20.8992C21.6889 22.7418 19.58 24.2741 18.0126 23.1353L14.1756 20.3475C13.4746 19.8382 12.5254 19.8382 11.8244 20.3475L7.98744 23.1353C6.42002 24.2741 4.31106 22.7418 4.90976 20.8992L6.37536 16.3885C6.64311 15.5645 6.34979 14.6618 5.64882 14.1525L1.81183 11.3647C0.244407 10.2259 1.04996 7.74671 2.9874 7.74671L7.73018 7.74671C8.59663 7.74671 9.36454 7.18879 9.63229 6.36475L11.0979 1.8541Z" fill="url(#paint0_linear_4_544)"/>
</g>
<path d="M11.5734 2.00861C12.0224 0.626643 13.9776 0.626643 14.4266 2.00861L15.8922 6.51925C16.2269 7.54931 17.1868 8.24671 18.2698 8.24671L23.0126 8.24671C24.4657 8.24671 25.0698 10.1061 23.8943 10.9602L20.0573 13.748C19.1811 14.3846 18.8144 15.513 19.1491 16.5431L20.6147 21.0537C21.0637 22.4357 19.482 23.5848 18.3064 22.7307L14.4695 19.943C13.5932 19.3064 12.4068 19.3064 11.5305 19.943L7.69355 22.7307C6.51798 23.5848 4.93626 22.4357 5.38529 21.0537L6.85089 16.5431C7.18557 15.513 6.81893 14.3846 5.94271 13.748L2.10573 10.9602C0.930156 10.1061 1.53432 8.24671 2.9874 8.24671L7.73018 8.24671C8.81324 8.24671 9.77313 7.54931 10.1078 6.51925L11.5734 2.00861Z" stroke="#B7B7B7"/>
<defs>
<filter id="filter0_i_4_544" x="0.983521" y="0.472107" width="24.033" height="24.0542" filterUnits="userSpaceOnUse" color-interpolation-filters="sRGB">
<feFlood flood-opacity="0" result="BackgroundImageFix"/>
<feBlend mode="normal" in="SourceGraphic" in2="BackgroundImageFix" result="shape"/>
<feColorMatrix in="SourceAlpha" type="matrix" values="0 0 0 0 0 0 0 0 0 0 0 0 0 0 0 0 0 0 127 0" result="hardAlpha"/>
<feOffset dy="1"/>
<feGaussianBlur stdDeviation="1.5"/>
<feComposite in2="hardAlpha" operator="arithmetic" k2="-1" k3="1"/>
<feColorMatrix type="matrix" values="0 0 0 0 0 0 0 0 0 0 0 0 0 0 0 0 0 0 0.25 0"/>
<feBlend mode="normal" in2="shape" result="effect1_innerShadow_4_544"/>
</filter>
<linearGradient id="paint0_linear_4_544" x1="13" y1="-4" x2="13" y2="30" gradientUnits="userSpaceOnUse">
<stop offset="0.311335" stop-color="#AAFAFF"/>
<stop offset="1" stop-color="#19C0C0"/>
</linearGradient>
</defs>
</svg>
